<svg width="320" height="243" viewBox="0 0 320 243" fill="none" xmlns="http://www.w3.org/2000/svg">
    <g clip-path="url(#clip0_241_71)">
    <path d="M3.26562 164.833H106.123C106.123 164.833 115.102 217.078 160 217.078C204.898 217.078 213.878 164.833 213.878 164.833H316.735" stroke="white" stroke-width="8" stroke-miterlimit="10" stroke-linecap="round"/>
    <path d="M183.592 184.514C162.383 201.861 130.628 187.045 129.028 159.69C126.163 110.718 177.102 26.8898 191.012 1.57556C181.763 18.4082 181.861 101.559 186.947 130.555C191.975 159.208 197.085 173.486 183.6 184.514H183.592Z" stroke="white" stroke-width="8" stroke-miterlimit="10"/>
    <path d="M33.9511 227.192C42.9995 227.192 50.3347 219.857 50.3347 210.808C50.3347 201.76 42.9995 194.424 33.9511 194.424C24.9026 194.424 17.5674 201.76 17.5674 210.808C17.5674 219.857 24.9026 227.192 33.9511 227.192Z" stroke="white" stroke-width="5" stroke-miterlimit="10"/>
    <path d="M79.5756 205.682C86.2211 205.682 91.6083 200.294 91.6083 193.649C91.6083 187.004 86.2211 181.616 79.5756 181.616C72.9302 181.616 67.543 187.004 67.543 193.649C67.543 200.294 72.9302 205.682 79.5756 205.682Z" stroke="white" stroke-width="5" stroke-miterlimit="10"/>
    <path d="M112.751 240.857C119.315 240.857 124.637 235.536 124.637 228.971C124.637 222.407 119.315 217.086 112.751 217.086C106.187 217.086 100.865 222.407 100.865 228.971C100.865 235.536 106.187 240.857 112.751 240.857Z" stroke="white" stroke-width="5" stroke-miterlimit="10"/>
    <path d="M208.09 240.857C214.654 240.857 219.976 235.536 219.976 228.971C219.976 222.407 214.654 217.086 208.09 217.086C201.526 217.086 196.204 222.407 196.204 228.971C196.204 235.536 201.526 240.857 208.09 240.857Z" stroke="white" stroke-width="5" stroke-miterlimit="10"/>
    <path d="M238.776 205.682C245.421 205.682 250.808 200.294 250.808 193.649C250.808 187.004 245.421 181.616 238.776 181.616C232.13 181.616 226.743 187.004 226.743 193.649C226.743 200.294 232.13 205.682 238.776 205.682Z" stroke="white" stroke-width="5" stroke-miterlimit="10"/>
    <path d="M284.947 227.192C294.207 227.192 301.714 219.685 301.714 210.424C301.714 201.164 294.207 193.657 284.947 193.657C275.687 193.657 268.18 201.164 268.18 210.424C268.18 219.685 275.687 227.192 284.947 227.192Z" stroke="white" stroke-width="5" stroke-miterlimit="10"/>
    </g>
    <defs>
    <clipPath id="clip0_241_71">
    <rect width="320" height="242.898" fill="white"/>
    </clipPath>
    </defs>
    </svg>
    