<?xml version="1.0" encoding="UTF-8"?>
<svg id="Ebene_2" data-name="Ebene 2" xmlns="http://www.w3.org/2000/svg" viewBox="0 0 231.38 86.24">
  <defs>
    <style>
      .cls-1 {
        fill: #174a5b;
      }

      .cls-2 {
        fill: #77c5d5;
      }
    </style>
  </defs>
  <g id="Layer_1" data-name="Layer 1">
    <g>
      <g>
        <path class="cls-1" d="m47.81.42v.6c-3.38,0-4.77,1.11-8.57,11.07l-7.6,20.94h-.65l-7.69-20.62-7,20.62h-.69L4.67,4.63C3.38,1.3,1.8,1.02.23,1.02V.42h12.51v.6c-4.08,0-2.92,3.66-2.83,3.98l7.97,21.68,5.1-15.15-2.41-6.9c-1.3-3.34-2.87-3.61-4.45-3.61V.42h12.46v.6c-4.12,0-2.87,3.66-2.78,3.98l7.6,21.82,5.23-14.87c1.34-4.45,3.89-10.93-2.59-10.93V.42h11.77Z"/>
        <path class="cls-1" d="m64.06.42v.6c-1.99,0-3.24.79-3.24,3.66v23.4c0,3.15,1.3,4.35,3.24,4.35v.6h-11.26v-.6c1.99,0,3.24-1.2,3.24-4.35V4.68c0-2.87-1.2-3.66-3.24-3.66V.42h11.26Z"/>
        <path class="cls-1" d="m109.04,32.43v.6h-11.86v-.6c1.95,0,3.34-1.07,3.34-4.82V2.18l-11.21,31.27h-.56l-12.93-28.35v16.4c0,5.37.79,10.93,5.93,10.93v.6h-13.11v-.6c5.74,0,6.58-5.7,6.58-10.93V4.08c-1.76-3.01-4.08-2.97-5.19-3.06V.42h9.22l12.05,26.22L100.52.42h8.2v.6c-1.99,0-3.57.93-3.57,4.08v22.52c0,3.75,1.9,4.82,3.89,4.82Z"/>
        <path class="cls-1" d="m120.85,26.69c0,5.56,1.67,5.74,4.59,5.74v.6h-12.23v-.6c2.27,0,3.06-1.2,3.06-5.61V5.37c0-3.2-.65-4.35-2.97-4.35V.42h8.38c9.22,0,15.33,1.11,15.33,9.36s-6.11,9.31-15.33,9.31h-.83v7.6Zm.83-8.2c5.65,0,10.29-.14,10.29-8.71s-4.87-8.76-10.29-8.76h-.83v17.47h.83Z"/>
        <path class="cls-1" d="m157.45,33.45c-10.19,0-15.06-7.27-15.06-16.49S147.25,0,157.45,0s15.06,7.78,15.06,16.96-4.86,16.49-15.06,16.49Zm0-32.85c-5.51,0-9.73,3.66-9.73,16.35s4.22,15.89,9.73,15.89,9.68-3.15,9.68-15.89S162.91.6,157.45.6Z"/>
        <path class="cls-1" d="m202.06,22.98v10.05h-23.12v-.6c1.99,0,2.55-1.76,2.55-4.91V4.91c0-2.83-.93-3.89-2.92-3.89V.42h11.03v.6c-1.99,0-3.43.79-3.43,4.12v27.29h1.67c4.96.05,12.83,0,13.62-9.45h.6Z"/>
        <path class="cls-1" d="m231.38,23.4v9.64h-23.3v-.6c1.95,0,2.5-1.67,2.5-4.82V5.37c0-2.87-.46-4.35-2.5-4.35V.42h22.7v8.34h-.6c-.56-7.64-8.57-7.74-12.32-7.74h-2.5v15.24h3.01c1.25,0,6.16,0,6.39-4.68h.6v9.96h-.6c-.23-4.63-5.23-4.68-6.39-4.68h-3.01v15.57h2.13c4.12,0,12.32.23,13.3-9.03h.6Z"/>
      </g>
      <g>
        <path class="cls-2" d="m69.41,58.9v2.96c-1.97,1.08-4.25,1.61-6.83,1.61-2.1,0-3.88-.42-5.34-1.26s-2.62-2-3.47-3.48c-.85-1.48-1.28-3.08-1.28-4.8,0-2.73.98-5.03,2.93-6.9,1.95-1.87,4.35-2.8,7.22-2.8,1.97,0,4.16.52,6.58,1.55v2.89c-2.2-1.26-4.34-1.88-6.44-1.88s-3.94.68-5.36,2.04c-1.42,1.36-2.13,3.06-2.13,5.1s.7,3.76,2.1,5.08c1.4,1.33,3.19,1.99,5.37,1.99s4.5-.7,6.67-2.1Z"/>
        <path class="cls-2" d="m80.95,44.47h2.69v16.34h8.46v2.45h-11.15v-18.79Z"/>
        <path class="cls-2" d="m102.71,44.47h2.69v18.79h-2.69v-18.79Z"/>
        <path class="cls-2" d="m132.76,44.47h2.56v18.79h-2.31l-12.56-14.47v14.47h-2.53v-18.79h2.18l12.67,14.59v-14.59Z"/>
        <path class="cls-2" d="m147.63,44.47h2.69v18.79h-2.69v-18.79Z"/>
        <path class="cls-2" d="m178.95,58.9v2.96c-1.97,1.08-4.25,1.61-6.83,1.61-2.1,0-3.88-.42-5.34-1.26-1.46-.84-2.62-2-3.47-3.48-.85-1.48-1.28-3.08-1.28-4.8,0-2.73.98-5.03,2.93-6.9,1.95-1.87,4.35-2.8,7.21-2.8,1.97,0,4.16.52,6.58,1.55v2.89c-2.2-1.26-4.34-1.88-6.44-1.88s-3.94.68-5.36,2.04c-1.42,1.36-2.13,3.06-2.13,5.1s.7,3.76,2.1,5.08c1.4,1.33,3.19,1.99,5.37,1.99s4.5-.7,6.67-2.1Z"/>
      </g>
      <g>
        <path class="cls-1" d="m6.37,75.96v1H1.94v3.54h4.28v1H1.94v3.6h4.55v1.01H.82v-10.15h5.55Z"/>
        <path class="cls-1" d="m20.41,76.48v1.26c-.7-.59-1.46-.91-2.29-.91-1.07,0-1.77.59-1.77,1.47,0,.67.16,1.25,1.84,2.1,2.1,1.09,2.6,1.82,2.6,3.2,0,1.5-1.16,2.63-2.9,2.63-.97,0-1.86-.31-2.63-.89v-1.4c.76.83,1.65,1.29,2.63,1.29s1.77-.64,1.77-1.62c0-.86-.28-1.37-2.25-2.4-1.59-.82-2.2-1.59-2.2-2.89,0-1.44,1.23-2.51,2.93-2.51.79,0,1.58.22,2.26.65Z"/>
        <path class="cls-1" d="m37.37,75.96v.98h-3.63v9.16h-1.12v-9.16h-3.59v-.98h8.33Z"/>
        <path class="cls-1" d="m48.98,75.9l4.52,10.21h-1.15l-1.43-3.18h-4.61l-1.37,3.18h-1.15l4.39-10.21h.79Zm-2.23,6.03h3.73l-1.92-4.31-1.81,4.31Z"/>
        <path class="cls-1" d="m64.7,75.96c1.89,0,3.14.97,3.14,2.59,0,1.09-.6,1.86-1.68,2.23,1.58.22,2.54,1.26,2.54,2.6,0,1.88-1.67,2.72-3.53,2.72h-3.09v-10.15h2.62Zm-1.52,4.51h1.12c1.67,0,2.38-.77,2.38-1.81,0-1.18-.7-1.71-2.2-1.71h-1.29v3.53Zm1.79,4.66c1.62,0,2.57-.55,2.57-1.83,0-1.18-.82-1.86-2.74-1.86h-1.62v3.69h1.79Z"/>
        <path class="cls-1" d="m78.92,75.96v9.12h4.78v1.03h-5.89v-10.15h1.12Z"/>
        <path class="cls-1" d="m93.54,75.96v10.15h-1.12v-10.15h1.12Z"/>
        <path class="cls-1" d="m108.13,76.48v1.26c-.7-.59-1.46-.91-2.29-.91-1.07,0-1.77.59-1.77,1.47,0,.67.16,1.25,1.84,2.1,2.1,1.09,2.6,1.82,2.6,3.2,0,1.5-1.16,2.63-2.9,2.63-.97,0-1.86-.31-2.63-.89v-1.4c.76.83,1.65,1.29,2.63,1.29s1.77-.64,1.77-1.62c0-.86-.28-1.37-2.25-2.4-1.59-.82-2.2-1.59-2.2-2.89,0-1.44,1.23-2.51,2.93-2.51.79,0,1.58.22,2.26.65Z"/>
        <path class="cls-1" d="m118.81,75.96v4.52h6.16v-4.52h1.12v10.15h-1.12v-4.6h-6.16v4.6h-1.12v-10.15h1.12Z"/>
        <path class="cls-1" d="m141.34,75.96v1h-4.43v3.54h4.28v1h-4.28v3.6h4.55v1.01h-5.67v-10.15h5.55Z"/>
        <path class="cls-1" d="m150.69,75.96h3.73c3.32,0,5.46,2.07,5.46,4.97,0,3.15-2.23,5.18-5.46,5.18h-3.73v-10.15Zm3.72,9.13c2.66,0,4.31-1.58,4.31-4.08s-1.61-4.06-4.48-4.06h-2.44v8.14h2.6Z"/>
        <path class="cls-1" d="m184.43,75.83v10.28h-1.12v-8.39l-1.96,1.56-.64-.79,3.29-2.66h.43Z"/>
        <path class="cls-1" d="m196.43,85.42c1.92-1.34,3.06-2.83,3.41-4.33-.6.39-1.24.59-1.93.59-1.65,0-2.84-1.34-2.84-2.86,0-1.77,1.34-3,3.01-3,1.9,0,3.21,1.49,3.21,3.63,0,2.44-1.61,5.1-4.18,6.78l-.67-.82Zm1.7-4.75c.86,0,1.98-.3,1.98-1.46,0-1.34-.73-2.37-2.04-2.37-1.15,0-1.89.86-1.89,1.93s.91,1.89,1.95,1.89Z"/>
        <path class="cls-1" d="m214.92,77.02h-4.91v-1.06h6.58c-1.07,2.38-2.14,4.79-4.75,10.28l-.98-.45,4.06-8.78Z"/>
        <path class="cls-1" d="m230.15,75.96v1h-3.36v2.89c.22-.01.37-.01.52-.01,2.05,0,3.41,1.29,3.41,3.15s-1.35,3.26-3.33,3.26c-.89,0-1.65-.21-2.41-.61v-1.15c.74.43,1.49.68,2.23.68,1.4,0,2.37-.94,2.37-2.19,0-1.58-1.52-2.17-2.54-2.17-.4,0-1.01.04-1.26.15v-5h4.39Z"/>
      </g>
      <rect class="cls-1" y="53.44" width="43.12" height="1.03"/>
      <rect class="cls-1" x="188.26" y="53.44" width="43.12" height="1.03"/>
    </g>
  </g>
</svg>